<svg xmlns="http://www.w3.org/2000/svg" xmlns:xlink="http://www.w3.org/1999/xlink" version="1.1" x="0px" y="0px" width="100px" height="100px" viewBox="0 0 100 100" enable-background="new 0 0 100 100" xml:space="preserve">
<g id="Captions">
</g>
<g id="Your_Icon">
	<path fill="#08c" d="M98.21,31.117l-1.144,0.879c0,0-0.016,0.061-0.029,0.092c-0.099,0.225-0.904,1.374-7.06,1.905   c-2.847,0.246-4.495,1.224-5.445,2.335c-7.95-1.729-15.388,6.305-17.887,9.362c-1.658-2.825-5.605-10.601-4.842-19.565   c0.01-0.111,0.066-0.978-0.408-1.774h0.019c0.062-9.248-1.725-15.372-5.309-18.201c-2.702-2.133-5.393-1.503-5.485-1.481   c-4.466,0.955-7.49,4.688-8.746,10.795c-0.891,4.332-0.603,8.334-0.567,8.766c-0.56,0.828-0.497,1.778-0.486,1.891   c0.829,9.718-3.893,18.063-5.229,20.207c-2.255-1.562-12.132-7.846-22.224-5.694c-3.469,0.74-6.107,0.396-7.84-1.017   c-2.223-1.814-2.224-4.866-2.224-4.895l-1.442-0.019c-0.002,0.152-0.018,3.757,2.74,6.02c2.089,1.713,5.139,2.158,9.066,1.322   c9.53-2.03,19.235,4.189,21.176,5.524c-1.495,2.684-1.669,4.46-1.686,4.829c-4.104,25.551-2.537,39.67-2.52,39.812   c0.26,2.165,1.657,2.767,2.487,2.799c4.999,1.729,10.726,2.604,17.048,2.604c0.376,0,0.758-0.008,1.139-0.014   c0.381,0.006,0.762,0.014,1.138,0.014c6.322,0,12.05-0.875,17.049-2.604c0.829-0.032,2.228-0.634,2.487-2.801   c0.016-0.14,1.584-14.259-2.521-39.81c-0.018-0.394-0.206-2.381-2.013-5.4c1.927-2.403,9.009-10.488,16.262-9.355   c-0.061,0.141-0.113,0.28-0.159,0.417c-0.761,2.266,0.09,5.017,1.361,6.165c0.593,0.535,1.263,0.691,1.845,0.427   c0.982-0.446,4.174-2.075,3.992-4.287c-0.119-1.462-1.634-2.642-4.617-3.591c0.812-0.662,2.062-1.179,3.966-1.343   c4.925-0.425,7.625-1.328,8.256-2.761C98.638,32.03,98.453,31.434,98.21,31.117z M50.939,6.076c0.087-0.02,2.167-0.477,4.305,1.232   c2.12,1.696,4.612,5.855,4.719,15.941c-0.324-0.101-0.676-0.164-1.071-0.164h-7.279h-0.599h-7.281c-0.38,0-0.718,0.06-1.032,0.153   C42.59,19.822,42.789,7.819,50.939,6.076z M70.554,92.037c-0.174,1.454-0.979,1.529-1.134,1.529c-0.001,0-0.002,0-0.003,0   l-0.143-0.008l-0.136,0.047c-5.03,1.759-10.857,2.604-17.303,2.549v-0.006c-0.178,0.005-0.349,0-0.525,0.003   c-0.175-0.003-0.346,0.002-0.522-0.003v0.006c-6.453,0.056-12.271-0.79-17.303-2.549l-0.137-0.041l-0.126,0.002   c-0.179,0.013-0.977-0.065-1.152-1.527c-0.005-0.047-0.187-1.69-0.264-4.828c1.949,0.613,9.068,2.607,19.188,2.607   c5.767,0,12.513-0.66,19.823-2.582C70.739,90.356,70.56,91.991,70.554,92.037z M68.025,52.467l0.009,0.114   c2.493,15.499,2.885,26.732,2.81,33.162C48.985,91.618,32.28,85.86,31.78,85.685c-0.072-6.439,0.325-17.651,2.81-33.104   l0.009-0.108c0-0.019,0.049-1.867,1.853-4.821c0.278-0.398,6.807-9.902,5.805-21.654c0-0.006-0.046-0.673,0.339-1.088   c0.236-0.254,0.618-0.383,1.136-0.383h7.281h0.599h7.279c0.518,0,0.901,0.129,1.137,0.384c0.385,0.415,0.339,1.081,0.339,1.087   c-1.002,11.751,5.526,21.255,5.781,21.617C67.976,50.606,68.025,52.454,68.025,52.467z M89.316,40.482   c0.073,0.901-1.53,2.119-3.137,2.853c-0.337-0.003-1.399-1.31-1.474-3.226c-0.023-0.607,0.056-1.382,0.44-2.129   C88.799,39.038,89.283,40.074,89.316,40.482z"/>
</g>
</svg>