<svg xmlns="http://www.w3.org/2000/svg" xmlns:xlink="http://www.w3.org/1999/xlink" version="1.1" id="Layer_1" x="0px" y="0px" width="100px" height="100px" viewBox="0 0 100 100" enable-background="new 0 0 100 100" xml:space="preserve">
<path fill="#08c" d="M76.597,41.759c-1.294-0.227-3.035-0.531-3.545-0.818c-0.126-0.394-0.493-0.678-0.929-0.678  c-0.538,0-0.975,0.436-0.975,0.975c0,1.547,1.924,1.884,5.112,2.442c3.735,0.654,8.85,1.55,8.85,4.357  c0,2.697-2.187,3.895-4.302,5.053c-1.468,0.804-2.975,1.63-3.484,2.984c-2.095-0.209-7.853-1.489-10.729-9.183  c-3.678-9.837-3.056-20.027-3.049-20.129c0.018-0.269-0.078-0.533-0.262-0.73c-0.171-0.183-0.406-0.288-0.655-0.303  c0.449-3.139,1.221-11.852-3.008-17.002c-2.105-2.565-5.128-3.866-8.982-3.866s-6.876,1.301-8.982,3.866  c-4.228,5.15-3.456,13.863-3.007,17.002c-0.249,0.014-0.485,0.12-0.656,0.303c-0.185,0.197-0.279,0.461-0.261,0.731  c0.006,0.102,0.635,10.274-3.05,20.128c-2.877,7.693-8.635,8.974-10.729,9.183c-0.509-1.354-2.016-2.181-3.484-2.984  c-2.115-1.158-4.302-2.356-4.302-5.053c0-2.807,5.115-3.703,8.85-4.357c3.189-0.558,5.113-0.896,5.113-2.442  c0-0.539-0.437-0.975-0.976-0.975c-0.435,0-0.804,0.285-0.929,0.678c-0.509,0.287-2.251,0.591-3.544,0.818  c-4.416,0.773-10.464,1.833-10.464,6.278c0,3.851,3.072,5.535,5.315,6.763c1.65,0.903,2.651,1.509,2.651,2.29v36.796  c0,0.539,0.437,0.976,0.976,0.976h54.958c0.537,0,0.975-0.437,0.975-0.976V57.09c0-0.781,1.002-1.387,2.651-2.29  c2.244-1.229,5.316-2.912,5.316-6.763C87.062,43.591,81.014,42.532,76.597,41.759z M43.166,9.965  c1.718-2.093,4.232-3.153,7.475-3.153c3.241,0,5.754,1.059,7.472,3.149c3.819,4.649,2.93,13.148,2.543,15.762h-20.03  C40.237,23.112,39.342,14.624,43.166,9.965z"/>
</svg>