<svg xmlns="http://www.w3.org/2000/svg" xmlns:xlink="http://www.w3.org/1999/xlink" version="1.1" id="Layer_1" x="0px" y="0px" width="100px" height="100px" viewBox="0 0 100 100" enable-background="new 0 0 100 100" xml:space="preserve">
<g>
	<circle fill="#08c" cx="18.935" cy="70.861" r="0.829"/>
</g>
<g>
	<circle fill="#08c" cx="50.636" cy="33.216" r="0.891"/>
</g>
<g>
	<circle fill="#08c" cx="50.636" cy="40.561" r="0.891"/>
</g>
<g>
	<circle fill="#08c" cx="50.636" cy="47.907" r="0.891"/>
</g>
<g>
	<circle fill="#08c" cx="50.636" cy="55.253" r="0.891"/>
</g>
<g>
	<circle fill="#08c" cx="50.636" cy="62.599" r="0.891"/>
</g>
<g>
	<circle fill="#08c" cx="50.636" cy="69.945" r="0.891"/>
</g>
<g>
	<circle fill="#08c" cx="50.636" cy="77.29" r="0.891"/>
</g>
<g>
	<path fill="#08c" d="M71.061,22.112L58.06,18.947l-2.271-3.542l0.066-0.133c-0.072-0.036-0.145-0.067-0.218-0.103l-0.093-0.144l-0.063,0.071   c-5.582-2.602-10.194-0.731-11.601-0.019l-0.047-0.052l-0.072,0.113c-0.181,0.095-0.289,0.161-0.317,0.178l0.1,0.162l-2.226,3.469   l-12.952,3.165L11.935,38.586v35.895h10.848V47.949l5.097-5.315v38.399l0.72,0.208c0.369,0.105,9.161,2.587,21.073,2.587   c11.92,0,20.754-2.646,21.125-2.758l0.705-0.214V42.545l5.184,5.404v26.532h10.848V38.585L71.061,22.112z M55.277,18.295   l0.982,1.53l-3.788,6.028l-1.56-2.71L55.277,18.295z M54.079,16.652l-4.389,4.875l-4.419-4.906   C46.726,15.994,50.057,15,54.079,16.652z M44.102,18.295l4.365,4.848l-1.559,2.71l-3.789-6.028L44.102,18.295z M13.925,72.491   v-4.539h6.868v4.539H13.925z M29.868,78.811c0.021,0.005,0.04,0.009,0.062,0.014l0.12-0.557c-0.064-0.015-0.122-0.027-0.182-0.04   V37.684l-9.075,9.466v19.808h-6.868V39.408L29.38,23.914l12.101-2.957l5.502,8.755l1.143-1.985v54.096   c-8.982-0.168-16.049-1.753-18.257-2.306V78.811z M69.512,37.597v40.479c-0.002,0-0.003,0-0.006,0.001l0.006,0.022v1.264   c-2.315,0.618-10.096,2.476-19.84,2.476c-0.354,0-0.702-0.002-1.049-0.007V26.863l1.067-1.855l2.706,4.704l5.503-8.756   l12.149,2.958l15.495,15.495v27.548h-6.869V47.15L69.512,37.597z M78.675,72.491v-4.539h6.869v4.539H78.675z"/>
</g>
<g>
	<rect fill="#08c" x="80.125" y="70.613" width="1.161" height="0.497"/>
</g>
</svg>