<svg xmlns="http://www.w3.org/2000/svg" xmlns:xlink="http://www.w3.org/1999/xlink" version="1.1" x="0px" y="0px" width="100px" height="100px" viewBox="0 0 100 100" enable-background="new 0 0 100 100" xml:space="preserve">
<g id="Captions">
</g>
<g id="Your_Icon">
	<path fill="#08c" d="M83.277,50.8c0,0.887-0.083,2.323-0.249,4.315s-0.805,3.93-1.909,5.811c-0.443,0.775-1.19,1.522-2.241,2.241   c-1.053,0.721-2.158,1.41-3.319,2.074c-1.162,0.664-2.27,1.22-3.32,1.66c-1.053,0.443-1.8,0.775-2.241,0.996   c-0.111,0.223-0.194,0.498-0.249,0.83c-0.057,0.332-0.14,0.609-0.249,0.83c-0.111,0.332-0.609,0.996-1.494,1.992   c-0.887,0.996-1.966,2.104-3.236,3.319c-1.273,1.22-2.602,2.407-3.984,3.569c-1.385,1.162-2.63,2.075-3.735,2.739   C53.949,83.061,49.8,84,44.6,84c-0.664,0-1.328,0-1.992,0s-1.386-0.055-2.158-0.166c-1.66-0.109-3.764-0.607-6.308-1.494   c-2.548-0.885-5.092-1.909-7.637-3.071c-2.547-1.162-4.813-2.296-6.806-3.403c-1.992-1.104-3.32-1.935-3.984-2.489   c-0.664-0.553-1.079-1.162-1.245-1.826s-0.194-1.328-0.083-1.992c0.109-0.664,0.275-1.245,0.498-1.743   c0.221-0.498,0.387-0.913,0.498-1.245l0.166-0.166c0.109-0.332,0.719-1.104,1.826-2.324c1.105-1.216,2.379-2.572,3.818-4.066   c1.437-1.494,2.876-2.988,4.315-4.482c1.438-1.494,2.6-2.682,3.486-3.568V39.346l0.166-0.166c0-0.221,0.109-0.498,0.332-0.83   c0.109-0.221,0.275-0.553,0.498-0.996c0.221-0.441,0.44-0.938,0.664-1.494c0.332-0.772,1.021-1.548,2.075-2.324   c1.05-0.772,2.267-1.576,3.651-2.406c1.383-0.83,2.905-1.604,4.565-2.324c1.66-0.719,3.263-1.354,4.813-1.909   c4.094-1.66,8.575-2.49,13.446-2.49c2.765,0,5.255,0.224,7.47,0.664c2.545,0.556,4.814,1.966,6.807,4.233   c1.992,2.27,3.817,4.677,5.478,7.221l0.83,0.996c1.549,2.324,2.49,4.622,2.822,6.889c0.332,2.27,0.553,4.124,0.664,5.562V50.8z    M67.839,68.894c0.109-0.109,0.166-0.221,0.166-0.332c0-0.109,0.055-0.221,0.166-0.332c-1.328,0.111-3.349,0.249-6.059,0.415   c-2.713,0.166-5.673,0.249-8.881,0.249h-2.822c-2.436,0-4.843-0.415-7.221-1.245c-2.382-0.83-4.565-1.743-6.558-2.739   c-1.991-0.996-3.626-1.935-4.896-2.821c-1.273-0.885-2.075-1.438-2.407-1.66c-0.555-0.553-0.858-1.354-0.913-2.407   c-0.057-1.051,0.026-2.075,0.249-3.071c-1.219,1.22-2.49,2.519-3.818,3.901c-1.327,1.385-2.547,2.656-3.651,3.818   c-1.107,1.161-2.049,2.157-2.822,2.987c-0.775,0.83-1.219,1.303-1.328,1.411v0.166c-0.443,0.887-0.747,1.771-0.913,2.656   c-0.166,0.887,0.083,1.605,0.747,2.158c0.553,0.443,1.826,1.19,3.818,2.24c1.992,1.054,4.204,2.158,6.64,3.32   c2.434,1.162,4.869,2.187,7.305,3.071c2.433,0.887,4.425,1.385,5.976,1.494c0.772,0.111,1.494,0.166,2.158,0.166s1.271,0,1.826,0   c4.647,0,8.521-0.885,11.619-2.656c0.996-0.664,2.158-1.549,3.486-2.656c1.328-1.104,2.573-2.212,3.735-3.319   c1.162-1.105,2.158-2.13,2.987-3.071C67.258,69.697,67.728,69.116,67.839,68.894z M79.625,60.096   c0.996-1.77,1.577-3.512,1.743-5.229c0.166-1.714,0.192-3.014,0.083-3.9v-0.83c0-1.438-0.14-3.18-0.415-5.229   c-0.277-2.046-1.19-4.176-2.739-6.391l-0.664-0.996c-1.659-2.324-3.402-4.591-5.229-6.806c-1.826-2.213-3.847-3.541-6.06-3.984   c-1.219-0.221-2.406-0.387-3.568-0.498c-1.162-0.108-2.353-0.166-3.569-0.166c-4.428,0-8.688,0.775-12.782,2.324   c-3.983,1.66-7.221,3.211-9.711,4.647c-2.489,1.44-3.958,2.656-4.398,3.652l-1.494,2.988v12.948v0.166   c-0.332,1.439-0.526,2.796-0.581,4.066c-0.057,1.273,0.025,2.021,0.249,2.241c0.332,0.223,1.104,0.775,2.324,1.66   c1.216,0.887,2.765,1.771,4.647,2.655c1.881,0.888,3.927,1.718,6.143,2.49c2.212,0.775,4.481,1.162,6.806,1.162   c2.101,0.111,4.233,0.141,6.391,0.083c2.158-0.055,4.094-0.138,5.811-0.249c1.714-0.108,3.154-0.221,4.315-0.332   c1.162-0.108,1.853-0.166,2.075-0.166c0.664-0.221,1.521-0.581,2.573-1.079c1.051-0.498,2.101-1.021,3.154-1.577   c1.05-0.552,2.046-1.161,2.987-1.825C78.655,61.258,79.293,60.65,79.625,60.096z M60.203,28.058c0.664,0,1.245,0.166,1.743,0.498   s0.747,0.775,0.747,1.328c0,0.443-0.249,0.83-0.747,1.162s-1.079,0.498-1.743,0.498s-1.245-0.166-1.743-0.498   s-0.747-0.719-0.747-1.162c0-0.553,0.249-0.996,0.747-1.328S59.539,28.058,60.203,28.058z M60.203,30.88   c1.217,0,1.826-0.332,1.826-0.996c0-0.773-0.609-1.162-1.826-1.162c-1.219,0-1.826,0.389-1.826,1.162   C58.377,30.548,58.984,30.88,60.203,30.88z"/>
</g>
</svg>