<svg xmlns="http://www.w3.org/2000/svg" xmlns:xlink="http://www.w3.org/1999/xlink" version="1.1" id="clothings" x="0px" y="0px" width="60px" height="60px" viewBox="0 0 75 65" enable-background="new 0 0 75 75" xml:space="preserve">
<path fill="#08c" d="M63.983,29.019c0.03-0.205-0.021-0.415-0.145-0.575c-0.052-0.068-5.243-6.832-8.81-10.526  c-3.403-3.526-7.896-3.435-10.582-3.38c-0.302,0.007-0.58,0.013-0.834,0.013c-0.365,0-0.661,0.32-0.661,0.717  c0,2.375-2.446,4.306-5.453,4.306s-5.452-1.931-5.452-4.306c0-0.396-0.297-0.717-0.661-0.717c-0.253,0-0.533-0.006-0.833-0.013  c-2.686-0.055-7.179-0.146-10.584,3.38c-3.566,3.694-8.757,10.458-8.809,10.526c-0.123,0.16-0.175,0.37-0.145,0.575  c0.031,0.206,0.144,0.386,0.307,0.495l11.637,7.744v21.784c0,0.793,0.592,1.436,1.321,1.436h26.438c0.73,0,1.322-0.643,1.322-1.436  V37.258l11.636-7.744C63.84,29.404,63.952,29.225,63.983,29.019z M52.04,35.574V23.161h-1.322v35.881H24.28V23.161h-1.321v12.413  l-10.291-6.849c1.374-1.765,5.34-6.793,8.214-9.771c3.01-3.118,7.004-3.036,9.646-2.983c0.085,0.003,0.168,0.004,0.249,0.006  c0.414,2.831,3.271,5.03,6.723,5.03s6.309-2.199,6.723-5.03c0.082-0.002,0.165-0.003,0.25-0.006  c2.643-0.053,6.634-0.136,9.646,2.983c2.873,2.977,6.84,8.006,8.214,9.771L52.04,35.574z"/>
</svg>