<svg xmlns="http://www.w3.org/2000/svg" xmlns:xlink="http://www.w3.org/1999/xlink" version="1.1" id="Calque_4" x="0px" y="0px" viewBox="0 0 1000 1000" enable-background="new 0 0 1000 1000" xml:space="preserve" height="100px" width="100px">
<metadata><?xpacket begin="&#65279;" id="W5M0MpCehiHzreSzNTczkc9d"?>
<x:xmpmeta xmlns:x="adobe:ns:meta/" x:xmptk="Adobe XMP Core 5.5-c014 79.151739, 2013/04/03-12:12:15        ">
   <rdf:RDF xmlns:rdf="http://www.w3.org/1999/02/22-rdf-syntax-ns#">
      <rdf:Description xmlns:xmp="http://ns.adobe.com/xap/1.0/" xmlns:xmpGImg="http://ns.adobe.com/xap/1.0/g/img/" xmlns:xmpTPg="http://ns.adobe.com/xap/1.0/t/pg/" xmlns:stDim="http://ns.adobe.com/xap/1.0/sType/Dimensions#" xmlns:xmpG="http://ns.adobe.com/xap/1.0/g/" xmlns:dc="http://purl.org/dc/elements/1.1/" xmlns:xmpMM="http://ns.adobe.com/xap/1.0/mm/" xmlns:stRef="http://ns.adobe.com/xap/1.0/sType/ResourceRef#" xmlns:stEvt="http://ns.adobe.com/xap/1.0/sType/ResourceEvent#" rdf:about="">
         <xmp:CreatorTool>Adobe Illustrator CC (Macintosh)</xmp:CreatorTool>
         <xmp:CreateDate>2014-07-04T15:26:32+02:00</xmp:CreateDate>
         <xmp:MetadataDate>2014-07-04T15:26:32+02:00</xmp:MetadataDate>
         <xmp:ModifyDate>2014-07-04T15:26:32+02:00</xmp:ModifyDate>
         <xmp:Thumbnails>
            <rdf:Alt>
               <rdf:li rdf:parseType="Resource">
                  <xmpGImg:width>256</xmpGImg:width>
                  <xmpGImg:height>256</xmpGImg:height>
                  <xmpGImg:format>JPEG</xmpGImg:format>
                  </rdf:li>
            </rdf:Alt>
         </xmp:Thumbnails>
         <xmpTPg:MaxPageSize rdf:parseType="Resource">
            <stDim:w>1000.000000</stDim:w>
            <stDim:h>1000.000000</stDim:h>
            <stDim:unit>Pixels</stDim:unit>
         </xmpTPg:MaxPageSize>
         <xmpTPg:NPages>1</xmpTPg:NPages>
         <xmpTPg:HasVisibleTransparency>False</xmpTPg:HasVisibleTransparency>
         <xmpTPg:HasVisibleOverprint>False</xmpTPg:HasVisibleOverprint>
         <xmpTPg:PlateNames>
            <rdf:Seq>
               <rdf:li>Cyan</rdf:li>
               <rdf:li>Magenta</rdf:li>
               <rdf:li>Yellow</rdf:li>
               <rdf:li>Black</rdf:li>
            </rdf:Seq>
         </xmpTPg:PlateNames>
         <xmpTPg:SwatchGroups>
            <rdf:Seq>
               <rdf:li rdf:parseType="Resource">
                  <xmpG:groupName>Groupe de nuances par d&#233;faut</xmpG:groupName>
                  <xmpG:groupType>0</xmpG:groupType>
               </rdf:li>
            </rdf:Seq>
         </xmpTPg:SwatchGroups>
         <dc:format>image/svg+xml</dc:format>
         <xmpMM:RenditionClass>proof:pdf</xmpMM:RenditionClass>
         <xmpMM:DerivedFrom rdf:parseType="Resource">
            <stRef:instanceID>xmp.iid:1b77789c-f159-4fbf-a3cb-f4aa675888c9</stRef:instanceID>
            <stRef:documentID>xmp.did:1b77789c-f159-4fbf-a3cb-f4aa675888c9</stRef:documentID>
            <stRef:originalDocumentID>xmp.did:59f9a576-be75-41f5-bd39-1369adefde86</stRef:originalDocumentID>
            <stRef:renditionClass>proof:pdf</stRef:renditionClass>
         </xmpMM:DerivedFrom>
         <xmpMM:DocumentID>xmp.did:4669bebc-fe31-44ff-9a72-1c8f9602d498</xmpMM:DocumentID>
         <xmpMM:InstanceID>xmp.iid:4669bebc-fe31-44ff-9a72-1c8f9602d498</xmpMM:InstanceID>
         <xmpMM:OriginalDocumentID>xmp.did:59f9a576-be75-41f5-bd39-1369adefde86</xmpMM:OriginalDocumentID>
         <xmpMM:History>
            <rdf:Seq>
               <rdf:li rdf:parseType="Resource">
                  <stEvt:action>saved</stEvt:action>
                  <stEvt:instanceID>xmp.iid:59f9a576-be75-41f5-bd39-1369adefde86</stEvt:instanceID>
                  <stEvt:when>2014-07-03T18:25:35+02:00</stEvt:when>
                  <stEvt:softwareAgent>Adobe Illustrator CC (Macintosh)</stEvt:softwareAgent>
                  <stEvt:changed>/</stEvt:changed>
               </rdf:li>
               <rdf:li rdf:parseType="Resource">
                  <stEvt:action>saved</stEvt:action>
                  <stEvt:instanceID>xmp.iid:4669bebc-fe31-44ff-9a72-1c8f9602d498</stEvt:instanceID>
                  <stEvt:when>2014-07-04T15:26:32+02:00</stEvt:when>
                  <stEvt:softwareAgent>Adobe Illustrator CC (Macintosh)</stEvt:softwareAgent>
                  <stEvt:changed>/</stEvt:changed>
               </rdf:li>
            </rdf:Seq>
         </xmpMM:History>
      </rdf:Description>
   </rdf:RDF>
</x:xmpmeta>
                                                                                                    
                                                                                                    
                                                                                                    
                                                                                                    
                                                                                                    
                                                                                                    
                                                                                                    
                                                                                                    
                                                                                                    
                                                                                                    
                                                                                                    
                                                                                                    
                                                                                                    
                                                                                                    
                                                                                                    
                                                                                                    
                                                                                                    
                                                                                                    
                                                                                                    
                                                                                                    
                           
<?xpacket end="w"?>
	</metadata>
<path fill="#08c" d="M289,957.8h14.3V294.6c-4.7,4.6-9.5,9.1-14.3,13.3V957.8z"/>
<rect x="448" y="23.4" width="16" height="423.4"/>
<rect x="419" y="810.9" width="14.3" height="146.9"/>
<rect x="448" y="810.9" width="16" height="146.9"/>
<rect x="529" y="23.4" width="14.3" height="423.4"/>
<rect x="419" y="23.4" width="14.3" height="423.4"/>
<path d="M260,957.8h14.3v-638c-4.7,3.6-9.5,7.1-14.3,10.4V957.8z"/>
<rect x="529" y="810.9" width="14.3" height="146.9"/>
<path d="M179,957.8h16V365.2c-5.4,2.3-10.8,4.3-16,6.3V957.8z"/>
<rect x="558" y="23.4" width="14.3" height="423.4"/>
<path d="M150,955.1c4.6,1.4,9.4,2.3,14.3,2.6V376.5c-4.9,1.6-9.7,3-14.3,4.4V955.1z"/>
<path d="M332.8,718.8V446.9h71.5V23.4h-18.4c1.6,15.6,3.1,32.8,3.1,48.4c0,93.1-30,159.7-71.1,207v678.9h86.3V810.9  C364.6,809.7,332.8,769.5,332.8,718.8z"/>
<path d="M607.8,23.4H587v423.4h77.1v271.9c0,50-32.8,92.2-73.4,92.2H587v146.9h94.3V285.4c-43.9-47.9-76.7-116.3-76.7-213.5  C604.7,54.7,606.2,39.1,607.8,23.4z"/>
<path d="M696,957.8h14.3V312.9c-4.9-4-9.6-8.3-14.3-12.7V957.8z"/>
<path d="M725,957.8h16V335.4c-5.4-3.5-10.7-7.1-16-11V957.8z"/>
<path d="M806,957.8h14.3v-584c-4.7-1.6-9.5-3.4-14.3-5.3V957.8z"/>
<path d="M835,957.4c4.9-0.5,9.7-1.6,14.3-3.2V382.8c-4.6-1.2-9.4-2.6-14.3-4.1V957.4z"/>
<rect x="558" y="810.9" width="14.3" height="146.9"/>
<path d="M643.8,718.8V467.2H351.6v251.6c0,39.1,25,71.9,54.7,71.9h184.4C620.3,790.6,643.8,757.8,643.8,718.8z"/>
<path d="M95.7,391.7c-10.5-1.1-21.3-2.3-29.8-7.1c-6.5-3.7-12.4-11.1-11.1-18.2c0.8-4.5,4.4-9.2,11-14.6c8.8-7,18.6-12.6,29.1-18.5  c5-2.8,10.2-5.8,15.3-8.9c13.1-8.1,31.6-21.1,41.2-41.4c7.5-15.8,7.8-35.1,0.9-52.8s-20.1-31.7-36.3-38.3l-7.6,18.5  c11.2,4.6,20.4,14.5,25.2,27.1c4.9,12.6,4.7,26.1-0.4,37c-5.5,11.7-16.2,22.2-33.6,32.9c-4.8,2.9-9.8,5.8-14.7,8.5  c-10.7,6-21.7,12.3-31.7,20.3c-6.8,5.4-16,14.1-18.2,26.7c-2.2,12.3,3.5,29.1,20.9,39c10.6,6,22.3,7.9,33.1,9.1v449.8  c0,38.7,19,72.4,46.3,87.8v-564C117.5,388.9,103.4,391,95.7,391.7L95.7,391.7z"/>
<path d="M959.8,313.6c-10-15-25.4-27.3-48.2-38.8c-6.6-3.3-13.3-6.3-19.8-9.2c-11-4.9-21.4-9.6-31.2-15.5  c-10.5-6.3-17.6-12.5-22.3-19.5c-5.3-7.8-7.2-16.9-5.1-24.2c3-10.4,13.4-18.2,24.5-26.4c13.7-10.2,29.2-21.7,32-41.1  c2.2-15.5-5.2-31.8-19.3-42.7c-13-10-29.1-13.7-40-15.6c-24.8-4.3-46.6-3.1-64.9,3.8c-23.4,8.8-41.2,27.6-46.3,49.1  c-4.3,18.1,0.4,38.3,12.4,52.6c11.9,14.3,30.9,22.6,49.5,21.5l-1.1-20c-12.4,0.7-25.1-4.8-33.1-14.4c-8-9.6-11.1-23-8.3-35.1  c3.6-15.1,16.6-28.5,33.8-35c14.9-5.6,33.2-6.5,54.4-2.8c14.3,2.5,24,6.1,31.3,11.8c8.3,6.4,12.9,15.8,11.7,24  c-1.6,11.1-12,18.9-24.1,27.8c-12.6,9.4-26.9,20-31.8,37c-3.7,13.1-0.9,28,7.7,40.9c6.4,9.5,15.5,17.6,28.6,25.5  c10.8,6.5,22.2,11.6,33.2,16.6c6.3,2.8,12.8,5.8,19,8.9c19.6,9.8,32.5,20,40.5,32c7.9,11.8,12.2,29.9,4.2,43.8  c-7.4,12.9-23.2,19.5-39.6,24.7v-1c-3.1,0.7-19.8-0.5-43.8-5.8v561c25.9-16.1,43.8-48.9,43.8-86.4V411.5l0.7,2.3  c21-6.4,44.5-14.9,56.2-35.5C975.5,359.6,973.6,334.2,959.8,313.6z"/>
</svg>