<svg xmlns="http://www.w3.org/2000/svg" xmlns:xlink="http://www.w3.org/1999/xlink" version="1.1" id="Layer_1" x="0px" y="0px" width="90px" height="90px" viewBox="0 0 100 100" enable-background="new 0 0 100 100" xml:space="preserve">
<path fill="rgba(35,35,142,.4)" d="M22.211,67.137c0,0,15.395,11.242,19.549,12.463c4.154,1.222,12.951,2.933,18.572-1.955  c5.621-4.887,15.811-10.213,19.127-11.188c3.315-0.976,9.947-2.471,13.718-0.064c3.771,2.405-14.889-9.753-14.889-9.753  s-6.827-3.511-11.897-2.796c-5.071,0.715-16.319,5.331-23.276,7.607C36.157,63.727,22.211,67.137,22.211,67.137z"/>
<path  d="M80.044,66.781c0,0,5.704-1.286,8.972-0.975c4.097,0.39,5.916,1.625,5.916,1.625s3.186,2.797,3.316,3.642  c0.13,0.845,0.52,2.729-1.235,3.25s-2.991,0.195-4.876-0.715C90.251,72.698,80.044,66.781,80.044,66.781z"/>
<path fill="rgba(35,35,142,.4)" d="M77.572,55.333c0,0-6.631-3.055-10.012-2.73c-3.381,0.325-19.181,5.462-23.602,7.412s-21.533,6.478-23.666,6.632  c-5.134,0.369-9.144-0.069-13.681,1.122c-2.456,0.646-4.719,1.073-4.719,1.073s-0.45-17.775,1.88-23.676  c0.834-2.112,2.186-14.72,13.725-20.976c7.109-3.854,24.445-5.591,32.962-3.836c8.517,1.756,19.31,6.112,21.976,14.889  C75.102,44.021,77.572,55.333,77.572,55.333z"/>
<path fill="rgba(35,35,142,.4)" d="M31.536,19.545c0,0,1.949-0.589,2.942-0.589c0.993,0,3.163-0.036,3.163-0.036s-0.772-1.655-2.06-1.729  c-1.287-0.074-1.631-0.045-2.648,0.294C31.609,17.927,31.536,19.545,31.536,19.545z"/>
</svg>