<svg xmlns="http://www.w3.org/2000/svg" xmlns:xlink="http://www.w3.org/1999/xlink" version="1.1" id="Layer_1" x="0px" y="0px" width="50px" height="50px" viewBox="-25 0 150 100" enable-background="new 0 0 150 150" xml:space="preserve">
<g>
	<path fill="#08c" fill-rule="evenodd" clip-rule="evenodd" d="M31.033,39.349c0.189-1.253,0.352-2.342,0.509-3.402   C34.657,14.984,36.214,4.501,50,4.501c13.786,0,15.342,10.482,18.457,31.445c0.157,1.06,0.319,2.152,0.509,3.403   c1.21,0.573,2.047,1.806,2.047,3.235c0,1.976-1.602,3.577-3.577,3.577s-3.577-1.602-3.577-3.577c0-1.042,0.445-1.979,1.155-2.633   c-0.167-1.115-0.341-2.285-0.51-3.427C61.728,17.842,60.34,8.501,50,8.501s-11.729,9.342-14.504,28.024   c-0.17,1.14-0.344,2.312-0.511,3.426c0.71,0.653,1.156,1.591,1.156,2.633c0,1.976-1.602,3.577-3.578,3.577   s-3.577-1.602-3.577-3.577C28.986,41.155,29.823,39.922,31.033,39.349z"/>
	<path fill="#08c" fill-rule="evenodd" clip-rule="evenodd" d="M7.253,34.17c1.845,15.366,3.691,30.732,5.536,46.098   c0.388,3.229,1.973,6.016,4.271,8.002c2.346,2.027,5.442,3.229,8.781,3.229c16.106,0,32.211,0,48.317,0   c3.339,0,6.436-1.201,8.781-3.228c2.299-1.987,3.884-4.773,4.271-8.002c1.846-15.366,3.691-30.733,5.536-46.099   C78.498,34.761,64.249,36.353,50,36.943C35.751,36.353,21.502,34.761,7.253,34.17L7.253,34.17z M8.821,80.737   C6.907,64.803,4.993,48.868,3.08,32.933c-0.087-0.726,0.117-1.384,0.6-1.933c0.483-0.549,1.11-0.836,1.841-0.842   c14.827-0.127,29.653-2.214,44.48-2.214c14.826,0,29.653,2.087,44.479,2.214c0.731,0.006,1.358,0.293,1.841,0.842   c0.483,0.549,0.688,1.208,0.601,1.934c-1.914,15.935-3.828,31.87-5.741,47.805c-0.512,4.257-2.6,7.929-5.631,10.549   c-3.062,2.646-7.079,4.212-11.391,4.212c-16.105,0-32.211,0-48.317,0c-4.312,0-8.329-1.566-11.39-4.213   C11.42,88.667,9.332,84.994,8.821,80.737z"/>
</g>
</svg>